<mxfile host="app.diagrams.net" modified="2021-06-14T09:28:44.562Z" agent="5.0 (X11)" etag="V5D9mBlbWguZ7LH6s3R_" version="14.7.6" type="github" pages="4">
  <diagram id="PQvo7xNXRfopdosZ4BcQ" name="Page-1">
    <mxGraphModel dx="1038" dy="544" grid="1" gridSize="10" guides="1" tooltips="1" connect="1" arrows="1" fold="1" page="1" pageScale="1" pageWidth="850" pageHeight="1100" math="0" shadow="0">
      <root>
        <mxCell id="0" />
        <mxCell id="1" parent="0" />
        <mxCell id="vIm-NWBDedtI4yLV9VMp-5" style="edgeStyle=orthogonalEdgeStyle;rounded=0;orthogonalLoop=1;jettySize=auto;html=1;exitX=0.5;exitY=1;exitDx=0;exitDy=0;entryX=0.5;entryY=0;entryDx=0;entryDy=0;strokeWidth=2;" parent="1" source="vIm-NWBDedtI4yLV9VMp-1" target="vIm-NWBDedtI4yLV9VMp-2" edge="1">
          <mxGeometry relative="1" as="geometry" />
        </mxCell>
        <mxCell id="vIm-NWBDedtI4yLV9VMp-1" value="&lt;font style=&quot;font-size: 28px&quot;&gt;Application&lt;/font&gt; " style="rounded=0;whiteSpace=wrap;html=1;" parent="1" vertex="1">
          <mxGeometry x="160" y="120" width="250" height="60" as="geometry" />
        </mxCell>
        <mxCell id="vIm-NWBDedtI4yLV9VMp-6" style="edgeStyle=orthogonalEdgeStyle;rounded=0;orthogonalLoop=1;jettySize=auto;html=1;exitX=0.5;exitY=1;exitDx=0;exitDy=0;entryX=0.5;entryY=0;entryDx=0;entryDy=0;strokeWidth=2;" parent="1" source="vIm-NWBDedtI4yLV9VMp-2" target="vIm-NWBDedtI4yLV9VMp-3" edge="1">
          <mxGeometry relative="1" as="geometry" />
        </mxCell>
        <mxCell id="vIm-NWBDedtI4yLV9VMp-2" value="&lt;div&gt;&lt;font style=&quot;font-size: 24px&quot;&gt;Système d&#39;Exploitation (Debian)&lt;br&gt;&lt;/font&gt;&lt;/div&gt;" style="rounded=0;whiteSpace=wrap;html=1;" parent="1" vertex="1">
          <mxGeometry x="160" y="220" width="250" height="60" as="geometry" />
        </mxCell>
        <mxCell id="vIm-NWBDedtI4yLV9VMp-7" style="edgeStyle=orthogonalEdgeStyle;rounded=0;orthogonalLoop=1;jettySize=auto;html=1;exitX=0.5;exitY=1;exitDx=0;exitDy=0;entryX=0.5;entryY=0;entryDx=0;entryDy=0;strokeWidth=2;" parent="1" source="vIm-NWBDedtI4yLV9VMp-3" target="vIm-NWBDedtI4yLV9VMp-4" edge="1">
          <mxGeometry relative="1" as="geometry" />
        </mxCell>
        <mxCell id="vIm-NWBDedtI4yLV9VMp-3" value="&lt;font style=&quot;font-size: 28px&quot;&gt;Pilote(s)&lt;/font&gt;" style="rounded=0;whiteSpace=wrap;html=1;" parent="1" vertex="1">
          <mxGeometry x="160" y="320" width="250" height="60" as="geometry" />
        </mxCell>
        <mxCell id="vIm-NWBDedtI4yLV9VMp-4" value="&lt;font style=&quot;font-size: 28px&quot;&gt;Périphérique(s)&lt;br&gt;&lt;/font&gt;" style="rounded=0;whiteSpace=wrap;html=1;" parent="1" vertex="1">
          <mxGeometry x="160" y="420" width="250" height="60" as="geometry" />
        </mxCell>
        <mxCell id="vIm-NWBDedtI4yLV9VMp-12" value="Programmation Haut-Niveau" style="swimlane;" parent="1" vertex="1">
          <mxGeometry x="140" y="80" width="290" height="420" as="geometry">
            <mxRectangle x="140" y="80" width="140" height="23" as="alternateBounds" />
          </mxGeometry>
        </mxCell>
        <mxCell id="t3VJlldGDYcN4BIX0XRb-1" value="&lt;font style=&quot;font-size: 28px&quot;&gt;Application&lt;/font&gt; " style="rounded=0;whiteSpace=wrap;html=1;" parent="1" vertex="1">
          <mxGeometry x="550" y="120" width="250" height="60" as="geometry" />
        </mxCell>
        <mxCell id="t3VJlldGDYcN4BIX0XRb-2" value="&lt;font style=&quot;font-size: 28px&quot;&gt;Périphérique(s)&lt;br&gt;&lt;/font&gt;" style="rounded=0;whiteSpace=wrap;html=1;" parent="1" vertex="1">
          <mxGeometry x="550" y="220" width="250" height="60" as="geometry" />
        </mxCell>
        <mxCell id="t3VJlldGDYcN4BIX0XRb-3" value="Programmation Bare Metal" style="swimlane;" parent="1" vertex="1">
          <mxGeometry x="530" y="80" width="290" height="220" as="geometry">
            <mxRectangle x="140" y="80" width="140" height="23" as="alternateBounds" />
          </mxGeometry>
        </mxCell>
        <mxCell id="NH1OOYbCNayRsM1jiayM-1" style="edgeStyle=orthogonalEdgeStyle;rounded=0;orthogonalLoop=1;jettySize=auto;html=1;exitX=0.5;exitY=1;exitDx=0;exitDy=0;entryX=0.5;entryY=0;entryDx=0;entryDy=0;strokeWidth=2;" parent="t3VJlldGDYcN4BIX0XRb-3" edge="1">
          <mxGeometry relative="1" as="geometry">
            <mxPoint x="144.5" y="100" as="sourcePoint" />
            <mxPoint x="144.5" y="140" as="targetPoint" />
          </mxGeometry>
        </mxCell>
      </root>
    </mxGraphModel>
  </diagram>
  <diagram id="6eGUBX210qVqV-tNmfSK" name="Page-2">
    <mxGraphModel dx="1483" dy="793" grid="1" gridSize="10" guides="1" tooltips="1" connect="1" arrows="1" fold="1" page="1" pageScale="1" pageWidth="850" pageHeight="1100" math="0" shadow="0">
      <root>
        <mxCell id="bquIhY8je3ygtMC0kqjp-0" />
        <mxCell id="bquIhY8je3ygtMC0kqjp-1" parent="bquIhY8je3ygtMC0kqjp-0" />
        <mxCell id="bquIhY8je3ygtMC0kqjp-5" style="edgeStyle=orthogonalEdgeStyle;rounded=0;orthogonalLoop=1;jettySize=auto;html=1;exitX=1;exitY=0.5;exitDx=0;exitDy=0;" parent="bquIhY8je3ygtMC0kqjp-1" source="bquIhY8je3ygtMC0kqjp-3" edge="1">
          <mxGeometry relative="1" as="geometry">
            <mxPoint x="280" y="325" as="targetPoint" />
            <Array as="points">
              <mxPoint x="280" y="325" />
            </Array>
          </mxGeometry>
        </mxCell>
        <mxCell id="bquIhY8je3ygtMC0kqjp-3" value="&lt;font style=&quot;font-size: 15px&quot;&gt;Capteur de distance par ultrasons&lt;br&gt;&lt;/font&gt;" style="rounded=0;whiteSpace=wrap;html=1;" parent="bquIhY8je3ygtMC0kqjp-1" vertex="1">
          <mxGeometry x="10" y="290" width="150" height="70" as="geometry" />
        </mxCell>
        <mxCell id="bquIhY8je3ygtMC0kqjp-6" value="GPIO" style="text;html=1;align=center;verticalAlign=middle;resizable=0;points=[];autosize=1;strokeColor=none;" parent="bquIhY8je3ygtMC0kqjp-1" vertex="1">
          <mxGeometry x="190" y="310" width="50" height="20" as="geometry" />
        </mxCell>
        <mxCell id="trQ8B5ozAX4WDraGjqbS-6" style="edgeStyle=orthogonalEdgeStyle;rounded=0;orthogonalLoop=1;jettySize=auto;html=1;exitX=1;exitY=0.5;exitDx=0;exitDy=0;entryX=0;entryY=0.5;entryDx=0;entryDy=0;" edge="1" parent="bquIhY8je3ygtMC0kqjp-1" source="bquIhY8je3ygtMC0kqjp-7" target="trQ8B5ozAX4WDraGjqbS-4">
          <mxGeometry relative="1" as="geometry" />
        </mxCell>
        <mxCell id="bquIhY8je3ygtMC0kqjp-7" value="Beaglebone Black" style="swimlane;startSize=20;" parent="bquIhY8je3ygtMC0kqjp-1" vertex="1">
          <mxGeometry x="280" y="200" width="300" height="160" as="geometry" />
        </mxCell>
        <mxCell id="bquIhY8je3ygtMC0kqjp-9" value="&lt;font style=&quot;font-size: 16px&quot;&gt;Unité Temps-réel&lt;br&gt;Programmable&lt;/font&gt;" style="text;html=1;align=center;verticalAlign=middle;resizable=0;points=[];autosize=1;strokeColor=none;" parent="bquIhY8je3ygtMC0kqjp-7" vertex="1">
          <mxGeometry y="60" width="140" height="40" as="geometry" />
        </mxCell>
        <mxCell id="bquIhY8je3ygtMC0kqjp-12" value="RPMsg" style="text;html=1;strokeColor=none;fillColor=none;align=center;verticalAlign=middle;whiteSpace=wrap;rounded=0;" parent="bquIhY8je3ygtMC0kqjp-7" vertex="1">
          <mxGeometry x="130" y="120" width="40" height="20" as="geometry" />
        </mxCell>
        <mxCell id="bquIhY8je3ygtMC0kqjp-8" value="" style="endArrow=none;html=1;exitX=0.5;exitY=1;exitDx=0;exitDy=0;entryX=0.5;entryY=0.119;entryDx=0;entryDy=0;entryPerimeter=0;" parent="bquIhY8je3ygtMC0kqjp-1" source="bquIhY8je3ygtMC0kqjp-7" target="bquIhY8je3ygtMC0kqjp-7" edge="1">
          <mxGeometry width="50" height="50" relative="1" as="geometry">
            <mxPoint x="410" y="290" as="sourcePoint" />
            <mxPoint x="440" y="230" as="targetPoint" />
          </mxGeometry>
        </mxCell>
        <mxCell id="bquIhY8je3ygtMC0kqjp-10" value="&lt;font style=&quot;font-size: 18px&quot;&gt;Noyau Linux&lt;/font&gt;" style="text;html=1;align=center;verticalAlign=middle;resizable=0;points=[];autosize=1;strokeColor=none;" parent="bquIhY8je3ygtMC0kqjp-1" vertex="1">
          <mxGeometry x="450" y="270" width="110" height="20" as="geometry" />
        </mxCell>
        <mxCell id="bquIhY8je3ygtMC0kqjp-11" value="" style="endArrow=classic;startArrow=classic;html=1;" parent="bquIhY8je3ygtMC0kqjp-1" edge="1">
          <mxGeometry width="50" height="50" relative="1" as="geometry">
            <mxPoint x="410" y="340" as="sourcePoint" />
            <mxPoint x="450" y="340" as="targetPoint" />
          </mxGeometry>
        </mxCell>
        <mxCell id="trQ8B5ozAX4WDraGjqbS-1" style="edgeStyle=orthogonalEdgeStyle;rounded=0;orthogonalLoop=1;jettySize=auto;html=1;exitX=1;exitY=0.5;exitDx=0;exitDy=0;" edge="1" parent="bquIhY8je3ygtMC0kqjp-1" source="trQ8B5ozAX4WDraGjqbS-0">
          <mxGeometry relative="1" as="geometry">
            <mxPoint x="470" y="360" as="targetPoint" />
          </mxGeometry>
        </mxCell>
        <mxCell id="trQ8B5ozAX4WDraGjqbS-0" value="&lt;font style=&quot;font-size: 12px&quot;&gt;Capteur 9 Axes(Gyroscope, Accéléromètre, &lt;/font&gt;&lt;font style=&quot;font-size: 12px&quot;&gt;&lt;span class=&quot;module__title__link&quot;&gt;Magnétomètre&lt;/span&gt;)&lt;br&gt;&lt;/font&gt;" style="rounded=0;whiteSpace=wrap;html=1;" vertex="1" parent="bquIhY8je3ygtMC0kqjp-1">
          <mxGeometry x="10" y="390" width="150" height="70" as="geometry" />
        </mxCell>
        <mxCell id="trQ8B5ozAX4WDraGjqbS-2" value="I²C" style="text;html=1;align=center;verticalAlign=middle;resizable=0;points=[];autosize=1;strokeColor=none;" vertex="1" parent="bquIhY8je3ygtMC0kqjp-1">
          <mxGeometry x="200" y="410" width="30" height="20" as="geometry" />
        </mxCell>
        <mxCell id="trQ8B5ozAX4WDraGjqbS-10" style="edgeStyle=orthogonalEdgeStyle;rounded=0;orthogonalLoop=1;jettySize=auto;html=1;exitX=1;exitY=0.25;exitDx=0;exitDy=0;entryX=0;entryY=0.75;entryDx=0;entryDy=0;" edge="1" parent="bquIhY8je3ygtMC0kqjp-1" source="trQ8B5ozAX4WDraGjqbS-4" target="trQ8B5ozAX4WDraGjqbS-8">
          <mxGeometry relative="1" as="geometry" />
        </mxCell>
        <mxCell id="trQ8B5ozAX4WDraGjqbS-11" style="edgeStyle=orthogonalEdgeStyle;rounded=0;orthogonalLoop=1;jettySize=auto;html=1;exitX=1;exitY=0.75;exitDx=0;exitDy=0;entryX=0;entryY=0.25;entryDx=0;entryDy=0;" edge="1" parent="bquIhY8je3ygtMC0kqjp-1" source="trQ8B5ozAX4WDraGjqbS-4" target="trQ8B5ozAX4WDraGjqbS-9">
          <mxGeometry relative="1" as="geometry" />
        </mxCell>
        <mxCell id="trQ8B5ozAX4WDraGjqbS-4" value="&lt;font style=&quot;font-size: 15px&quot;&gt;Carte Pilote pour moteurs&lt;/font&gt;&lt;font style=&quot;font-size: 15px&quot;&gt;&lt;br&gt;&lt;/font&gt;" style="rounded=0;whiteSpace=wrap;html=1;" vertex="1" parent="bquIhY8je3ygtMC0kqjp-1">
          <mxGeometry x="700" y="245" width="150" height="70" as="geometry" />
        </mxCell>
        <mxCell id="trQ8B5ozAX4WDraGjqbS-7" value="I²C" style="text;html=1;align=center;verticalAlign=middle;resizable=0;points=[];autosize=1;strokeColor=none;" vertex="1" parent="bquIhY8je3ygtMC0kqjp-1">
          <mxGeometry x="620" y="260" width="30" height="20" as="geometry" />
        </mxCell>
        <mxCell id="MeYwZd2Jr7Yw33sIO1QU-3" style="edgeStyle=orthogonalEdgeStyle;rounded=0;orthogonalLoop=1;jettySize=auto;html=1;exitX=1;exitY=0.5;exitDx=0;exitDy=0;entryX=1;entryY=0.5;entryDx=0;entryDy=0;" edge="1" parent="bquIhY8je3ygtMC0kqjp-1" source="trQ8B5ozAX4WDraGjqbS-8" target="MeYwZd2Jr7Yw33sIO1QU-1">
          <mxGeometry relative="1" as="geometry" />
        </mxCell>
        <mxCell id="trQ8B5ozAX4WDraGjqbS-8" value="&lt;font style=&quot;font-size: 15px&quot;&gt;Moteur&lt;/font&gt;&lt;font style=&quot;font-size: 15px&quot;&gt; gauche&lt;br&gt;&lt;/font&gt;" style="rounded=0;whiteSpace=wrap;html=1;" vertex="1" parent="bquIhY8je3ygtMC0kqjp-1">
          <mxGeometry x="910" y="210" width="150" height="70" as="geometry" />
        </mxCell>
        <mxCell id="MeYwZd2Jr7Yw33sIO1QU-4" style="edgeStyle=orthogonalEdgeStyle;rounded=0;orthogonalLoop=1;jettySize=auto;html=1;exitX=1;exitY=0.5;exitDx=0;exitDy=0;entryX=1;entryY=0.5;entryDx=0;entryDy=0;" edge="1" parent="bquIhY8je3ygtMC0kqjp-1" source="trQ8B5ozAX4WDraGjqbS-9" target="MeYwZd2Jr7Yw33sIO1QU-2">
          <mxGeometry relative="1" as="geometry">
            <Array as="points">
              <mxPoint x="1090" y="315" />
              <mxPoint x="1090" y="85" />
            </Array>
          </mxGeometry>
        </mxCell>
        <mxCell id="trQ8B5ozAX4WDraGjqbS-9" value="&lt;font style=&quot;font-size: 15px&quot;&gt;Moteur&lt;/font&gt;&lt;font style=&quot;font-size: 15px&quot;&gt; droit&lt;br&gt;&lt;/font&gt;" style="rounded=0;whiteSpace=wrap;html=1;" vertex="1" parent="bquIhY8je3ygtMC0kqjp-1">
          <mxGeometry x="910" y="280" width="150" height="70" as="geometry" />
        </mxCell>
        <mxCell id="trQ8B5ozAX4WDraGjqbS-12" value="PWM" style="text;html=1;align=center;verticalAlign=middle;resizable=0;points=[];autosize=1;strokeColor=none;" vertex="1" parent="bquIhY8je3ygtMC0kqjp-1">
          <mxGeometry x="865" y="305" width="40" height="20" as="geometry" />
        </mxCell>
        <mxCell id="MeYwZd2Jr7Yw33sIO1QU-8" style="edgeStyle=orthogonalEdgeStyle;rounded=0;orthogonalLoop=1;jettySize=auto;html=1;exitX=0;exitY=0.5;exitDx=0;exitDy=0;entryX=0;entryY=0.25;entryDx=0;entryDy=0;" edge="1" parent="bquIhY8je3ygtMC0kqjp-1" source="MeYwZd2Jr7Yw33sIO1QU-1" target="bquIhY8je3ygtMC0kqjp-7">
          <mxGeometry relative="1" as="geometry">
            <Array as="points">
              <mxPoint x="270" y="155" />
              <mxPoint x="270" y="240" />
            </Array>
          </mxGeometry>
        </mxCell>
        <mxCell id="MeYwZd2Jr7Yw33sIO1QU-1" value="&lt;br&gt;&lt;font style=&quot;font-size: 15px&quot;&gt;Encodeur Magnétique&lt;/font&gt;&lt;font style=&quot;font-size: 15px&quot;&gt; droit&lt;br&gt;&lt;/font&gt;" style="rounded=0;whiteSpace=wrap;html=1;" vertex="1" parent="bquIhY8je3ygtMC0kqjp-1">
          <mxGeometry x="700" y="120" width="150" height="70" as="geometry" />
        </mxCell>
        <mxCell id="MeYwZd2Jr7Yw33sIO1QU-7" style="edgeStyle=orthogonalEdgeStyle;rounded=0;orthogonalLoop=1;jettySize=auto;html=1;exitX=0;exitY=0.5;exitDx=0;exitDy=0;entryX=0.001;entryY=0.528;entryDx=0;entryDy=0;entryPerimeter=0;" edge="1" parent="bquIhY8je3ygtMC0kqjp-1" source="MeYwZd2Jr7Yw33sIO1QU-2" target="bquIhY8je3ygtMC0kqjp-9">
          <mxGeometry relative="1" as="geometry">
            <mxPoint x="280" y="280" as="targetPoint" />
            <Array as="points">
              <mxPoint x="260" y="85" />
              <mxPoint x="260" y="280" />
              <mxPoint x="280" y="280" />
            </Array>
          </mxGeometry>
        </mxCell>
        <mxCell id="MeYwZd2Jr7Yw33sIO1QU-2" value="&lt;br&gt;&lt;font style=&quot;font-size: 15px&quot;&gt;Encodeur Magnétique&lt;/font&gt;&lt;font style=&quot;font-size: 15px&quot;&gt; gauche&lt;br&gt;&lt;/font&gt;" style="rounded=0;whiteSpace=wrap;html=1;" vertex="1" parent="bquIhY8je3ygtMC0kqjp-1">
          <mxGeometry x="700" y="50" width="150" height="70" as="geometry" />
        </mxCell>
        <mxCell id="MeYwZd2Jr7Yw33sIO1QU-6" value="Arbre de transmission " style="text;html=1;strokeColor=none;fillColor=none;align=center;verticalAlign=middle;whiteSpace=wrap;rounded=0;" vertex="1" parent="bquIhY8je3ygtMC0kqjp-1">
          <mxGeometry x="860" y="160" width="140" height="20" as="geometry" />
        </mxCell>
        <mxCell id="MeYwZd2Jr7Yw33sIO1QU-9" value="PWM" style="text;html=1;align=center;verticalAlign=middle;resizable=0;points=[];autosize=1;strokeColor=none;" vertex="1" parent="bquIhY8je3ygtMC0kqjp-1">
          <mxGeometry x="865" y="240" width="40" height="20" as="geometry" />
        </mxCell>
        <mxCell id="MeYwZd2Jr7Yw33sIO1QU-12" value="eQEP" style="text;html=1;align=center;verticalAlign=middle;resizable=0;points=[];autosize=1;strokeColor=none;" vertex="1" parent="bquIhY8je3ygtMC0kqjp-1">
          <mxGeometry x="645" y="60" width="50" height="20" as="geometry" />
        </mxCell>
        <mxCell id="MeYwZd2Jr7Yw33sIO1QU-13" value="eQEP" style="text;html=1;align=center;verticalAlign=middle;resizable=0;points=[];autosize=1;strokeColor=none;" vertex="1" parent="bquIhY8je3ygtMC0kqjp-1">
          <mxGeometry x="645" y="160" width="50" height="20" as="geometry" />
        </mxCell>
        <mxCell id="MeYwZd2Jr7Yw33sIO1QU-14" value="Arbre de transmission " style="text;html=1;strokeColor=none;fillColor=none;align=center;verticalAlign=middle;whiteSpace=wrap;rounded=0;" vertex="1" parent="bquIhY8je3ygtMC0kqjp-1">
          <mxGeometry x="860" y="60" width="140" height="20" as="geometry" />
        </mxCell>
      </root>
    </mxGraphModel>
  </diagram>
  <diagram id="0sdjwj53GWiiBrs7HkVB" name="Page-3">
    <mxGraphModel dx="865" dy="463" grid="1" gridSize="10" guides="1" tooltips="1" connect="1" arrows="1" fold="1" page="1" pageScale="1" pageWidth="850" pageHeight="1100" math="0" shadow="0">
      <root>
        <mxCell id="XrOIozyT6mBp8YTSmQO2-0" />
        <mxCell id="XrOIozyT6mBp8YTSmQO2-1" parent="XrOIozyT6mBp8YTSmQO2-0" />
      </root>
    </mxGraphModel>
  </diagram>
  <diagram id="-CGWU9y8sjAIRygRteYr" name="Page-4">
    <mxGraphModel dx="1038" dy="544" grid="1" gridSize="10" guides="1" tooltips="1" connect="1" arrows="1" fold="1" page="1" pageScale="1" pageWidth="850" pageHeight="1100" math="0" shadow="0">
      <root>
        <mxCell id="bo1jI08zntYHztdBlXlo-0" />
        <mxCell id="bo1jI08zntYHztdBlXlo-1" parent="bo1jI08zntYHztdBlXlo-0" />
      </root>
    </mxGraphModel>
  </diagram>
</mxfile>
